<svg xmlns="http://www.w3.org/2000/svg" viewBox="0 0 1440 320"><path fill="#22d3ee" fill-opacity="0.50" d="M0,96L14.1,96C28.2,96,56,96,85,122.7C112.9,149,141,203,169,234.7C197.6,267,226,277,254,282.7C282.4,288,311,288,339,256C367.1,224,395,160,424,160C451.8,160,480,224,508,250.7C536.5,277,565,267,593,250.7C621.2,235,649,213,678,202.7C705.9,192,734,192,762,192C790.6,192,819,192,847,202.7C875.3,213,904,235,932,240C960,245,988,235,1016,234.7C1044.7,235,1073,245,1101,240C1129.4,235,1158,213,1186,218.7C1214.1,224,1242,256,1271,266.7C1298.8,277,1327,267,1355,256C1383.5,245,1412,235,1426,229.3L1440,224L1440,320L1425.9,320C1411.8,320,1384,320,1355,320C1327.1,320,1299,320,1271,320C1242.4,320,1214,320,1186,320C1157.6,320,1129,320,1101,320C1072.9,320,1045,320,1016,320C988.2,320,960,320,932,320C903.5,320,875,320,847,320C818.8,320,791,320,762,320C734.1,320,706,320,678,320C649.4,320,621,320,593,320C564.7,320,536,320,508,320C480,320,452,320,424,320C395.3,320,367,320,339,320C310.6,320,282,320,254,320C225.9,320,198,320,169,320C141.2,320,113,320,85,320C56.5,320,28,320,14,320L0,320Z"></path></svg>